<svg xmlns="http://www.w3.org/2000/svg" xmlns:xlink="http://www.w3.org/1999/xlink" width="80" zoomAndPan="magnify" viewBox="0 0 60 60" height="80" preserveAspectRatio="xMidYMid meet" version="1.0"><defs><g/><clipPath id="3537dc3716"><path d="M 7.5 7.5 L 52.554688 7.5 L 52.554688 52.554688 L 7.5 52.554688 Z M 7.5 7.5 " clip-rule="nonzero"/></clipPath><clipPath id="e93ac578e9"><path d="M 30 52.5 C 23.992188 52.5 18.335938 50.160156 14.089844 45.910156 C 9.839844 41.664062 7.5 36.007812 7.5 30 C 7.5 23.992188 9.839844 18.335938 14.089844 14.089844 C 18.335938 9.839844 23.992188 7.5 30 7.5 C 36.007812 7.5 41.664062 9.839844 45.910156 14.089844 C 50.160156 18.34375 52.5 23.992188 52.5 30 C 52.5 36.007812 50.160156 41.664062 45.910156 45.910156 C 41.664062 50.160156 36.007812 52.5 30 52.5 M 30 8.847656 C 24.351562 8.847656 19.039062 11.050781 15.046875 15.046875 C 11.050781 19.039062 8.847656 24.351562 8.847656 30 C 8.847656 35.648438 11.050781 40.960938 15.046875 44.953125 C 19.039062 48.949219 24.351562 51.152344 30 51.152344 C 35.648438 51.152344 40.960938 48.949219 44.953125 44.953125 C 48.949219 40.960938 51.152344 35.648438 51.152344 30 C 51.152344 24.351562 48.949219 19.039062 44.953125 15.046875 C 40.960938 11.050781 35.648438 8.847656 30 8.847656 " clip-rule="nonzero"/></clipPath><clipPath id="77899b430e"><path d="M 24.660156 17.179688 L 35.355469 17.179688 L 35.355469 27.875 L 24.660156 27.875 Z M 24.660156 17.179688 " clip-rule="nonzero"/></clipPath></defs><g clip-path="url(#3537dc3716)"><g clip-path="url(#e93ac578e9)"><path fill="#f6bd3b" d="M 7.5 7.5 L 52.464844 7.5 L 52.464844 52.464844 L 7.5 52.464844 Z M 7.5 7.5 " fill-opacity="1" fill-rule="nonzero"/></g></g><g clip-path="url(#77899b430e)"><path fill="#19055b" d="M 30.671875 22.960938 C 31.421875 23.714844 34.125 26.417969 34.125 26.417969 C 34.128906 26.417969 34.132812 26.421875 34.132812 26.421875 C 34.34375 26.632812 34.34375 26.972656 34.132812 27.183594 C 33.925781 27.390625 33.585938 27.390625 33.375 27.183594 C 33.375 27.179688 33.371094 27.175781 33.371094 27.171875 C 33.371094 27.171875 30.921875 24.726562 30.039062 23.839844 C 29.109375 24.773438 26.6875 27.195312 26.6875 27.195312 C 26.683594 27.195312 26.683594 27.199219 26.679688 27.203125 C 26.46875 27.414062 26.125 27.414062 25.910156 27.203125 C 25.902344 27.191406 25.859375 27.152344 25.847656 27.140625 C 25.636719 26.925781 25.636719 26.582031 25.847656 26.371094 C 25.851562 26.371094 25.855469 26.367188 25.855469 26.363281 C 25.855469 26.363281 28.464844 23.757812 29.304688 22.914062 C 28.960938 22.453125 28.414062 21.914062 27.53125 21.90625 C 27.527344 21.90625 27.527344 21.90625 27.523438 21.90625 C 27.1875 21.917969 26.847656 21.804688 26.578125 21.570312 C 26.5625 21.550781 26.515625 21.503906 26.515625 21.503906 L 24.660156 19.164062 L 24.882812 18.941406 L 27.15625 21.34375 L 27.421875 21.074219 L 25.085938 18.738281 L 25.28125 18.546875 L 27.628906 20.894531 L 27.851562 20.675781 L 25.503906 18.320312 L 25.71875 18.105469 L 28.070312 20.457031 L 28.332031 20.195312 L 25.90625 17.917969 L 26.113281 17.714844 L 28.347656 19.457031 C 28.347656 19.457031 28.429688 19.527344 28.457031 19.554688 C 28.761719 19.863281 28.894531 20.277344 28.851562 20.679688 C 28.910156 21.679688 29.488281 22.179688 29.949219 22.460938 C 30.542969 22.121094 31.203125 21.601562 31.285156 21.117188 C 30.96875 20.527344 31.066406 19.394531 31.929688 18.53125 C 32.785156 17.675781 34.035156 17.351562 34.871094 18.160156 C 34.875 18.164062 34.886719 18.175781 34.890625 18.183594 C 35.699219 19.015625 35.375 20.269531 34.519531 21.125 C 33.65625 21.988281 32.523438 22.085938 31.933594 21.769531 C 31.488281 21.84375 31.007812 22.410156 30.671875 22.960938 Z M 30.671875 22.960938 " fill-opacity="1" fill-rule="nonzero"/></g><g fill="#145da0" fill-opacity="1"><g transform="translate(17.487427, 35.095657)"><g><path d="M 1.421875 -3.328125 L 1.546875 -3.640625 C 1.753906 -3.554688 1.898438 -3.515625 1.984375 -3.515625 C 2.222656 -3.515625 3.050781 -3.550781 4.46875 -3.625 L 4.875 -3.640625 L 4.59375 -0.8125 C 4.644531 -0.8125 4.695312 -0.8125 4.75 -0.8125 L 4.734375 -0.109375 C 4.316406 -0.117188 3.632812 -0.0859375 2.6875 -0.015625 C 2.34375 0.00390625 2.132812 0.015625 2.0625 0.015625 C 1.976562 0.015625 1.828125 -0.0195312 1.609375 -0.09375 C 1.515625 -0.125 1.425781 -0.160156 1.34375 -0.203125 L 1.59375 -0.84375 C 1.832031 -0.75 2 -0.691406 2.09375 -0.671875 C 2.15625 -0.671875 2.335938 -0.6875 2.640625 -0.71875 C 3.171875 -0.75 3.585938 -0.769531 3.890625 -0.78125 L 4.109375 -2.90625 C 2.898438 -2.84375 2.191406 -2.8125 1.984375 -2.8125 C 1.867188 -2.8125 1.710938 -2.84375 1.515625 -2.90625 C 1.429688 -2.9375 1.351562 -2.96875 1.28125 -3 Z M 1.421875 -3.328125 "/></g></g></g><g fill="#145da0" fill-opacity="1"><g transform="translate(23.845924, 35.095657)"><g><path d="M 1.015625 -2.875 L 1.328125 -3.5 C 1.378906 -3.46875 1.453125 -3.425781 1.546875 -3.375 C 1.640625 -3.320312 1.800781 -3.210938 2.03125 -3.046875 C 2.269531 -2.878906 2.476562 -2.707031 2.65625 -2.53125 L 2.15625 -2.046875 C 2 -2.191406 1.820312 -2.335938 1.625 -2.484375 C 1.425781 -2.628906 1.285156 -2.722656 1.203125 -2.765625 C 1.117188 -2.816406 1.054688 -2.851562 1.015625 -2.875 Z M 2.921875 -1.390625 C 3.773438 -2.085938 4.441406 -2.890625 4.921875 -3.796875 L 5.53125 -3.46875 C 5.25 -2.9375 4.898438 -2.425781 4.484375 -1.9375 C 4.128906 -1.53125 3.738281 -1.15625 3.3125 -0.8125 C 2.957031 -0.53125 2.613281 -0.296875 2.28125 -0.109375 C 1.957031 0.0664062 1.707031 0.15625 1.53125 0.15625 C 1.425781 0.15625 1.332031 0.117188 1.25 0.046875 C 1.164062 -0.015625 1.070312 -0.117188 0.96875 -0.265625 C 0.894531 -0.367188 0.828125 -0.46875 0.765625 -0.5625 L 1.34375 -0.9375 C 1.4375 -0.789062 1.523438 -0.664062 1.609375 -0.5625 C 1.710938 -0.601562 1.84375 -0.664062 2 -0.75 C 2.289062 -0.914062 2.597656 -1.128906 2.921875 -1.390625 Z M 2.921875 -1.390625 "/></g></g></g><g fill="#145da0" fill-opacity="1"><g transform="translate(30.204421, 35.095657)"><g><path d="M 5.265625 -3.75 L 4.859375 -3.515625 C 4.648438 -3.765625 4.429688 -3.984375 4.203125 -4.171875 L 4.53125 -4.46875 C 4.789062 -4.269531 5.035156 -4.03125 5.265625 -3.75 Z M 5.828125 -4.09375 L 5.421875 -3.859375 C 5.210938 -4.109375 4.992188 -4.328125 4.765625 -4.515625 L 5.09375 -4.8125 C 5.351562 -4.613281 5.597656 -4.375 5.828125 -4.09375 Z M 4.65625 -0.609375 L 4.8125 0.0625 C 4.363281 0.15625 3.84375 0.210938 3.25 0.234375 C 3.164062 0.242188 3.082031 0.25 3 0.25 C 2.34375 0.25 1.910156 0.148438 1.703125 -0.046875 C 1.566406 -0.179688 1.488281 -0.390625 1.46875 -0.671875 C 1.457031 -0.828125 1.460938 -1.15625 1.484375 -1.65625 C 1.515625 -2.476562 1.53125 -3.21875 1.53125 -3.875 C 1.488281 -3.945312 1.414062 -4.039062 1.3125 -4.15625 L 1.84375 -4.609375 C 1.894531 -4.546875 1.945312 -4.476562 2 -4.40625 C 2.144531 -4.21875 2.21875 -4.0625 2.21875 -3.9375 C 2.21875 -3.488281 2.210938 -3.046875 2.203125 -2.609375 C 2.546875 -2.679688 2.878906 -2.769531 3.203125 -2.875 C 3.453125 -2.96875 3.660156 -3.054688 3.828125 -3.140625 C 3.753906 -3.265625 3.707031 -3.347656 3.6875 -3.390625 L 4.3125 -3.703125 C 4.425781 -3.484375 4.507812 -3.328125 4.5625 -3.234375 C 4.625 -3.117188 4.617188 -3 4.546875 -2.875 C 4.492188 -2.75 4.359375 -2.628906 4.140625 -2.515625 C 3.972656 -2.429688 3.769531 -2.347656 3.53125 -2.265625 C 3.082031 -2.097656 2.632812 -1.972656 2.1875 -1.890625 C 2.1875 -1.828125 2.1875 -1.738281 2.1875 -1.625 C 2.15625 -0.9375 2.15625 -0.582031 2.1875 -0.5625 C 2.300781 -0.46875 2.660156 -0.429688 3.265625 -0.453125 C 3.804688 -0.472656 4.269531 -0.523438 4.65625 -0.609375 Z M 4.65625 -0.609375 "/></g></g></g><g fill="#145da0" fill-opacity="1"><g transform="translate(36.562918, 35.095657)"><g><path d="M 2 -2.4375 C 1.738281 -2.4375 1.515625 -2.460938 1.328125 -2.515625 L 1.515625 -3.1875 C 1.742188 -3.125 1.988281 -3.113281 2.25 -3.15625 C 2.382812 -3.164062 3.113281 -3.222656 4.4375 -3.328125 L 4.5 -2.640625 C 3.175781 -2.535156 2.457031 -2.472656 2.34375 -2.453125 C 2.238281 -2.441406 2.125 -2.4375 2 -2.4375 Z M 1.171875 -0.515625 C 1.078125 -0.515625 0.925781 -0.5625 0.71875 -0.65625 C 0.625 -0.6875 0.539062 -0.722656 0.46875 -0.765625 L 0.78125 -1.390625 C 0.976562 -1.285156 1.117188 -1.222656 1.203125 -1.203125 C 1.523438 -1.203125 2.347656 -1.265625 3.671875 -1.390625 C 4.367188 -1.460938 4.769531 -1.5 4.875 -1.5 C 5.039062 -1.5 5.234375 -1.460938 5.453125 -1.390625 L 5.234375 -0.71875 C 5.085938 -0.769531 4.96875 -0.796875 4.875 -0.796875 C 4.789062 -0.796875 4.410156 -0.765625 3.734375 -0.703125 C 2.367188 -0.578125 1.515625 -0.515625 1.171875 -0.515625 Z M 1.171875 -0.515625 "/></g></g></g><g fill="#145da0" fill-opacity="1"><g transform="translate(17.487427, 41.533387)"><g><path d="M 5.0625 -3.625 L 5.359375 -3.046875 L 3.515625 -1.0625 C 3.703125 -0.84375 3.863281 -0.625 4 -0.40625 L 3.4375 -0.015625 C 3.300781 -0.203125 3.15625 -0.394531 3 -0.59375 C 2.84375 -0.789062 2.695312 -0.957031 2.5625 -1.09375 C 2.4375 -1.226562 2.304688 -1.359375 2.171875 -1.484375 C 2.046875 -1.617188 1.957031 -1.707031 1.90625 -1.75 C 1.863281 -1.789062 1.828125 -1.820312 1.796875 -1.84375 L 2.25 -2.375 C 2.488281 -2.164062 2.753906 -1.90625 3.046875 -1.59375 L 4.203125 -2.828125 C 3.859375 -2.785156 3.539062 -2.75 3.25 -2.71875 C 2.6875 -2.65625 2.238281 -2.613281 1.90625 -2.59375 C 1.707031 -2.570312 1.550781 -2.554688 1.4375 -2.546875 C 1.269531 -2.535156 1.160156 -2.539062 1.109375 -2.5625 C 0.984375 -2.59375 0.804688 -2.65625 0.578125 -2.75 L 0.71875 -3.078125 L 0.859375 -3.390625 C 1.023438 -3.316406 1.160156 -3.265625 1.265625 -3.234375 C 1.460938 -3.234375 2.128906 -3.296875 3.265625 -3.421875 C 3.941406 -3.492188 4.539062 -3.5625 5.0625 -3.625 Z M 5.0625 -3.625 "/></g></g></g><g fill="#145da0" fill-opacity="1"><g transform="translate(23.845924, 41.533387)"><g><path d="M 1.96875 -0.3125 C 1.519531 -0.0390625 1.066406 0.175781 0.609375 0.34375 L 0.375 -0.3125 C 1.082031 -0.550781 1.742188 -0.9375 2.359375 -1.46875 C 2.984375 -2.007812 3.5 -2.628906 3.90625 -3.328125 C 3.738281 -3.304688 3.582031 -3.285156 3.4375 -3.265625 C 2.632812 -3.148438 2.1875 -3.101562 2.09375 -3.125 C 1.976562 -3.144531 1.769531 -3.222656 1.46875 -3.359375 L 1.765625 -3.984375 C 1.960938 -3.890625 2.109375 -3.832031 2.203125 -3.8125 C 2.429688 -3.820312 3.1875 -3.921875 4.46875 -4.109375 L 4.828125 -3.625 C 4.546875 -2.976562 4.160156 -2.375 3.671875 -1.8125 C 4.242188 -1.40625 4.679688 -0.96875 4.984375 -0.5 L 4.390625 -0.125 C 4.128906 -0.539062 3.726562 -0.929688 3.1875 -1.296875 C 3.175781 -1.273438 3.164062 -1.257812 3.15625 -1.25 C 2.78125 -0.894531 2.382812 -0.582031 1.96875 -0.3125 Z M 1.96875 -0.3125 "/></g></g></g><g fill="#145da0" fill-opacity="1"><g transform="translate(30.204421, 41.533387)"><g><path d="M 0.96875 -0.1875 C 1.832031 -0.445312 2.554688 -0.945312 3.140625 -1.6875 C 3.003906 -1.832031 2.863281 -1.957031 2.71875 -2.0625 C 2.59375 -2.164062 2.46875 -2.253906 2.34375 -2.328125 C 2.125 -2.066406 1.914062 -1.867188 1.71875 -1.734375 L 1.328125 -2.296875 C 1.585938 -2.472656 1.875 -2.800781 2.1875 -3.28125 C 2.3125 -3.476562 2.410156 -3.65625 2.484375 -3.8125 C 2.566406 -3.96875 2.613281 -4.078125 2.625 -4.140625 C 2.601562 -4.222656 2.554688 -4.332031 2.484375 -4.46875 L 3.078125 -4.8125 C 3.117188 -4.75 3.15625 -4.675781 3.1875 -4.59375 C 3.28125 -4.40625 3.328125 -4.257812 3.328125 -4.15625 C 3.328125 -4.132812 3.328125 -4.113281 3.328125 -4.09375 L 4.515625 -4.125 L 4.859375 -3.6875 C 4.765625 -3.300781 4.632812 -2.914062 4.46875 -2.53125 C 4.332031 -2.25 4.179688 -1.976562 4.015625 -1.71875 C 4.203125 -1.476562 4.367188 -1.21875 4.515625 -0.9375 L 3.90625 -0.609375 C 3.800781 -0.785156 3.691406 -0.957031 3.578125 -1.125 C 3.304688 -0.800781 3.003906 -0.515625 2.671875 -0.265625 C 2.210938 0.0546875 1.710938 0.300781 1.171875 0.46875 Z M 3.109375 -2.65625 C 3.253906 -2.539062 3.398438 -2.410156 3.546875 -2.265625 C 3.753906 -2.628906 3.925781 -3.015625 4.0625 -3.421875 L 3.0625 -3.390625 C 2.976562 -3.242188 2.890625 -3.097656 2.796875 -2.953125 C 2.785156 -2.929688 2.773438 -2.910156 2.765625 -2.890625 C 2.878906 -2.816406 2.992188 -2.738281 3.109375 -2.65625 Z M 3.109375 -2.65625 "/></g></g></g><g fill="#145da0" fill-opacity="1"><g transform="translate(36.562918, 41.533387)"><g><path d="M 1.25 -2.40625 C 1.46875 -2.40625 2.789062 -2.414062 5.21875 -2.4375 L 5.234375 -1.75 C 2.742188 -1.71875 1.40625 -1.703125 1.21875 -1.703125 C 1.101562 -1.703125 0.90625 -1.78125 0.625 -1.9375 C 0.59375 -1.945312 0.570312 -1.957031 0.5625 -1.96875 L 0.875 -2.59375 C 0.882812 -2.582031 0.910156 -2.566406 0.953125 -2.546875 C 1.097656 -2.460938 1.195312 -2.414062 1.25 -2.40625 Z M 1.25 -2.40625 "/></g></g></g></svg>
